<svg width="62" height="88" viewBox="0 0 62 88" fill="none" xmlns="http://www.w3.org/2000/svg">
<path fill-rule="evenodd" clip-rule="evenodd" d="M30.9996 70.9246C46.141 70.9246 58.4906 58.575 58.4906 43.4331C58.4906 28.2917 46.1416 15.9421 30.9996 15.9421C15.8577 15.9421 3.50867 28.2911 3.50867 43.4331C3.50867 58.575 15.8583 70.9246 30.9996 70.9246Z" fill="#DE9739"/>
<path fill-rule="evenodd" clip-rule="evenodd" d="M48.5726 36.8554C48.5726 36.2396 49.0707 35.7403 49.6877 35.7403C50.3035 35.7403 50.8027 36.2396 50.8027 36.8554V47.8889C50.8027 53.3361 48.575 58.2869 44.9863 61.8756C41.3975 65.4643 36.4467 67.6921 30.9996 67.6921C25.5524 67.6921 20.6016 65.4643 17.0129 61.8756C13.4242 58.2869 11.1964 53.3355 11.1964 47.8889V36.8554C11.1964 36.2396 11.6957 35.7403 12.3115 35.7403C12.9284 35.7403 13.4265 36.2396 13.4265 36.8554V47.8889C13.4265 52.7203 15.4044 57.1135 18.59 60.2985C21.7749 63.4841 26.1682 65.4614 30.9996 65.4614C35.831 65.4614 40.2242 63.4841 43.4092 60.2985C46.5953 57.1135 48.5726 52.7203 48.5726 47.8889V36.8554Z" fill="#0B0F1F"/>
<path fill-rule="evenodd" clip-rule="evenodd" d="M51.0975 37.2666C51.0975 37.8824 50.5983 38.3817 49.9825 38.3817C49.3667 38.3817 48.8674 37.8824 48.8674 37.2666V20.3874C43.1097 18.6892 37.26 17.8404 31.3183 17.8404C25.3561 17.8404 19.2931 18.6944 13.1317 20.4014V37.266C13.1317 37.8818 12.6319 38.3811 12.0167 38.3811C11.4009 38.3811 10.9016 37.8818 10.9016 37.266V19.5625H10.9051C10.9051 19.0801 11.2214 18.6362 11.7073 18.4952C18.3476 16.5779 24.8848 15.619 31.3183 15.619C37.7313 15.619 44.0337 16.5709 50.2248 18.4736C50.7241 18.5849 51.0975 19.0306 51.0975 19.5625V37.2666Z" fill="#0B0F1F"/>
<path fill-rule="evenodd" clip-rule="evenodd" d="M12.2434 21.8845C12.8388 22.0383 13.1947 22.6447 13.0409 23.239C12.8871 23.8332 12.2806 24.1903 11.687 24.0359C6.24916 22.6284 3.12012 19.0828 2.18682 15.6217C1.72949 13.9252 1.79648 12.2316 2.3709 10.7845C2.96572 9.28785 4.09128 8.07025 5.72892 7.38746C8.43036 6.26191 12.562 6.64525 17.9859 9.85237C19.2583 7.01344 23.0619 0.504818 31.2898 0.254307C31.9032 0.237995 32.4142 0.721539 32.4311 1.33442C32.448 1.94788 31.9644 2.45939 31.3504 2.4757C22.7858 2.73553 19.8385 11.0834 19.6055 11.7865C19.5758 11.8937 19.5315 11.998 19.468 12.0965C19.1359 12.6138 18.4473 12.7641 17.9294 12.432C12.6494 9.035 8.86729 8.49087 6.5824 9.44339C5.532 9.88092 4.8131 10.6546 4.43617 11.6025C4.04001 12.6004 4.00389 13.8058 4.3383 15.0461C5.08925 17.8308 7.68582 20.7041 12.2434 21.8845Z" fill="#0B0F1F"/>
<path fill-rule="evenodd" clip-rule="evenodd" d="M51.1395 23.9893C50.5453 24.1478 49.9347 23.7953 49.7763 23.2011C49.6172 22.6063 49.9708 21.9957 50.5645 21.8372C55.058 20.6208 57.6056 17.7458 58.321 14.975C58.6374 13.7551 58.5896 12.5672 58.1888 11.5785C57.8078 10.6412 57.0941 9.87681 56.0565 9.44453C53.7716 8.49259 49.9883 9.03672 44.709 12.4332C44.1922 12.7653 43.5042 12.6155 43.1715 12.0976C43.1092 11.9997 43.062 11.8949 43.034 11.7877C42.801 11.0845 39.8525 2.73608 31.2891 2.47683C30.6757 2.45994 30.191 1.94901 30.2085 1.33555C30.2254 0.722094 30.7363 0.239132 31.3497 0.255444C39.5776 0.505373 43.3813 7.01458 44.6525 9.85351C50.0781 6.64639 54.2091 6.26304 56.9106 7.3886C58.5354 8.06614 59.6563 9.26684 60.2535 10.7425C60.8325 12.1681 60.91 13.8442 60.4743 15.5331C59.5823 18.9826 56.508 22.5358 51.1395 23.9893Z" fill="#0B0F1F"/>
<path fill-rule="evenodd" clip-rule="evenodd" d="M14.2025 55.1421C14.8137 55.0797 15.3607 55.5242 15.4225 56.1354C15.4848 56.7459 15.0403 57.2924 14.4303 57.3553C12.3126 57.5784 8.601 58.8391 6.8748 59.4561C7.83607 62.5898 12.4024 72.8374 30.9996 72.8374C31.6154 72.8374 32.1147 73.3367 32.1147 73.9531C32.1147 74.5689 31.6148 75.0682 30.9996 75.0682C7.93161 75.0682 4.65108 59.9589 4.46582 59.004C4.34289 58.4698 4.63068 57.9128 5.1585 57.7147C5.17482 57.7083 11.0904 55.4712 14.2025 55.1421Z" fill="#0B0F1F"/>
<path fill-rule="evenodd" clip-rule="evenodd" d="M47.57 57.3548C46.9577 57.2925 46.5137 56.746 46.5767 56.1349C46.639 55.5238 47.1843 55.0787 47.7966 55.1416C50.9076 55.4702 56.8231 57.7073 56.84 57.7137C57.3679 57.9118 57.6557 58.4687 57.5327 59.0029C57.3486 59.9584 54.0669 75.0671 30.999 75.0671C30.3832 75.0671 29.8839 74.5678 29.8839 73.952C29.8839 73.3357 30.3832 72.8364 30.999 72.8364C49.5962 72.8364 54.1625 62.5887 55.1238 59.455C53.3981 58.8387 49.6853 57.5785 47.57 57.3548Z" fill="#0B0F1F"/>
<path fill-rule="evenodd" clip-rule="evenodd" d="M29.3066 75.4326C25.0316 74.6997 22.0873 75.4891 19.7523 77.2724C17.3637 79.0965 15.5023 82.0018 13.5145 85.4058C16.4123 85.855 23.4761 85.6878 29.3066 75.4326ZM18.4013 75.5031C21.5158 73.1256 25.4319 72.1934 31.2525 73.5561V73.5573C31.3398 73.5776 31.4267 73.6085 31.5094 73.6516C32.0559 73.933 32.2697 74.6042 31.9883 75.15C23.4726 91.6622 11.4679 87.2014 11.4341 87.1891V87.1868C11.3718 87.1647 11.31 87.1361 11.25 87.1023C10.7199 86.797 10.5352 86.1178 10.8416 85.5859C13.2477 81.4163 15.3835 77.8089 18.4013 75.5031Z" fill="#0B0F1F"/>
<path fill-rule="evenodd" clip-rule="evenodd" d="M30.7468 73.5558C36.5668 72.1938 40.4835 73.1253 43.598 75.5028C46.6169 77.8087 48.7515 81.4155 51.1582 85.5856C51.4628 86.1175 51.2799 86.7968 50.7486 87.1021C50.6892 87.1364 50.6268 87.1644 50.5645 87.1865L50.5657 87.1889C50.5313 87.2011 38.5272 91.6619 30.0115 75.1498C29.7296 74.6039 29.9445 73.9328 30.4904 73.6514C30.5737 73.6083 30.66 73.5774 30.7473 73.557V73.5558H30.7468ZM42.2475 77.2716C39.9114 75.4883 36.9676 74.6994 32.6932 75.4318C38.5237 85.6875 45.5875 85.8548 48.4858 85.405C46.4963 82.0015 44.6344 79.0956 42.2475 77.2716Z" fill="#0B0F1F"/>
<path fill-rule="evenodd" clip-rule="evenodd" d="M23.6818 45.8295C24.6891 45.8295 25.5117 45.0075 25.5117 44.0002C25.5117 42.9929 24.6891 42.1703 23.6818 42.1703C22.674 42.1703 21.8519 42.9924 21.8519 44.0002C21.8525 45.0081 22.674 45.8295 23.6818 45.8295Z" fill="#0B0F1F"/>
<path fill-rule="evenodd" clip-rule="evenodd" d="M38.3168 45.8295C39.3247 45.8295 40.1467 45.0075 40.1467 44.0002C40.1467 42.9929 39.3253 42.1703 38.3168 42.1703C37.3101 42.1703 36.4869 42.9924 36.4869 44.0002C36.4875 45.0081 37.3101 45.8295 38.3168 45.8295Z" fill="#0B0F1F"/>
<path fill-rule="evenodd" clip-rule="evenodd" d="M16.4134 36.7567C16.4134 36.2947 16.788 35.9201 17.2489 35.9201C17.712 35.9201 18.0866 36.2947 18.0866 36.7567C18.0866 39.6439 17.5279 42.0221 16.7222 43.99V43.9929C15.9212 45.951 14.8731 47.4925 13.8868 48.7247C13.6001 49.0835 13.0764 49.1418 12.7169 48.8552C12.3587 48.5685 12.2992 48.0448 12.5859 47.6853C13.4894 46.5575 14.4472 45.1476 15.1801 43.3585L15.1813 43.3591C15.9083 41.581 16.4134 39.4144 16.4134 36.7567Z" fill="#0B0F1F"/>
<path fill-rule="evenodd" clip-rule="evenodd" d="M43.9131 36.7567C43.9131 36.2947 44.2877 35.9201 44.7497 35.9201C45.2117 35.9201 45.5863 36.2947 45.5863 36.7567C45.5863 39.4144 46.0902 41.5805 46.8184 43.3597L46.8196 43.3591C47.5525 45.1476 48.5114 46.558 49.4138 47.6859C49.7005 48.0454 49.6416 48.5691 49.2828 48.8558C48.9233 49.1424 48.3996 49.0841 48.1129 48.7253C47.1266 47.4925 46.0786 45.9516 45.2775 43.9935V43.9906C44.4718 42.0221 43.9131 39.6439 43.9131 36.7567Z" fill="#0B0F1F"/>
<path fill-rule="evenodd" clip-rule="evenodd" d="M25.7267 56.0197C25.4523 55.6498 25.5298 55.1272 25.8997 54.8534C26.2697 54.579 26.7917 54.6571 27.066 55.027C27.6615 55.8263 28.3926 56.3565 29.1686 56.6687C30.0425 57.0212 30.9775 57.1028 31.8427 56.9862C32.7008 56.8715 33.4803 56.5644 34.0535 56.138C34.4212 55.8648 34.6932 55.5473 34.8284 55.2129C34.9991 54.7852 35.485 54.5778 35.9126 54.7491C36.3402 54.9204 36.5476 55.4063 36.3769 55.8339C36.1229 56.4619 35.6568 57.0229 35.0469 57.4774C34.2563 58.0669 33.2036 58.487 32.0658 58.6396C30.9327 58.7922 29.7034 58.6833 28.5476 58.2172C27.503 57.796 26.5207 57.0864 25.7267 56.0197Z" fill="#0B0F1F"/>
<path fill-rule="evenodd" clip-rule="evenodd" d="M31.6387 50.4374C32.0996 50.4374 32.4753 50.812 32.4753 51.2734C32.4753 51.736 32.0996 52.1106 31.6387 52.1106H28.8056C28.3436 52.1106 27.969 51.736 27.969 51.2734V40.4916C27.8484 39.9567 26.7765 36.2981 19.9882 37.5775C19.5367 37.6619 19.0998 37.3631 19.0153 36.9104C18.9303 36.4572 19.2291 36.0214 19.6824 35.9363C28.1252 34.3459 29.4814 39.5629 29.616 40.2096C29.6329 40.2754 29.6422 40.3442 29.6422 40.4158V50.438L31.6387 50.4374Z" fill="#0B0F1F"/>
<path fill-rule="evenodd" clip-rule="evenodd" d="M30.3611 50.4374C29.8991 50.4374 29.5245 50.812 29.5245 51.2734C29.5245 51.736 29.8991 52.1106 30.3611 52.1106H33.1931C33.6551 52.1106 34.0297 51.736 34.0297 51.2734V40.4916C34.1491 39.9567 35.2234 36.2981 42.0093 37.5775C42.4631 37.6619 42.8989 37.3631 42.9834 36.9104C43.0684 36.4572 42.7696 36.0214 42.3163 35.9363C33.8735 34.3459 32.5173 39.5629 32.3815 40.2096C32.3658 40.2754 32.3565 40.3442 32.3565 40.4158V50.438L30.3611 50.4374Z" fill="#0B0F1F"/>
<path fill-rule="evenodd" clip-rule="evenodd" d="M15.8606 56.9204C16.4799 58.8435 20.1892 63.9644 26.131 67.7739C29.8793 70.1765 34.4963 72.025 39.7547 72.1573L39.7163 73.824C34.1054 73.6825 29.1989 71.7238 25.2292 69.1785C18.9402 65.1459 14.9576 59.5589 14.2737 57.4301L15.8606 56.9204Z" fill="#0B0F1F"/>
<path fill-rule="evenodd" clip-rule="evenodd" d="M16.7287 84.2568C16.4717 84.4252 16.1268 84.3529 15.9585 84.0954C15.7901 83.8379 15.8618 83.4925 16.1198 83.3241L30.2824 74.0587C30.5394 73.8903 30.8854 73.9626 31.0538 74.2195C31.221 74.477 31.1493 74.823 30.8924 74.9908L16.7287 84.2568Z" fill="#0B0F1F"/>
<path fill-rule="evenodd" clip-rule="evenodd" d="M45.8234 83.3241C46.0803 83.4925 46.152 83.8379 45.9836 84.0954C45.8153 84.3529 45.4704 84.4246 45.2134 84.2568L31.0491 74.9914C30.7922 74.8236 30.7205 74.4776 30.8877 74.2201C31.0561 73.9631 31.4021 73.8909 31.6591 74.0593L45.8234 83.3241Z" fill="#0B0F1F"/>
<path fill-rule="evenodd" clip-rule="evenodd" d="M30.442 20.6459C30.442 20.3377 30.6925 20.0878 30.9995 20.0878C31.3077 20.0878 31.5571 20.3377 31.5571 20.6459V31.4307C31.5571 31.7389 31.3077 31.9882 30.9995 31.9882C30.6925 31.9882 30.442 31.7383 30.442 31.4307V20.6459Z" fill="#0B0F1F"/>
<path fill-rule="evenodd" clip-rule="evenodd" d="M23.5967 21.1852C23.5967 20.8771 23.846 20.6271 24.1542 20.6271C24.4612 20.6271 24.7117 20.8771 24.7117 21.1852V31.9706C24.7117 32.2782 24.4612 32.5281 24.1542 32.5281C23.846 32.5281 23.5967 32.2782 23.5967 31.9706V21.1852Z" fill="#0B0F1F"/>
<path fill-rule="evenodd" clip-rule="evenodd" d="M16.9867 22.3715C16.9867 22.0633 17.236 21.8133 17.5442 21.8133C17.8524 21.8133 18.1018 22.0633 18.1018 22.3715V33.1568C18.1018 33.465 17.8524 33.7144 17.5442 33.7144C17.236 33.7144 16.9867 33.465 16.9867 33.1568V22.3715Z" fill="#0B0F1F"/>
<path fill-rule="evenodd" clip-rule="evenodd" d="M37.2874 21.1852C37.2874 20.8771 37.5367 20.6271 37.8449 20.6271C38.1531 20.6271 38.4024 20.8771 38.4024 21.1852V31.9706C38.4024 32.2782 38.1531 32.5281 37.8449 32.5281C37.5367 32.5281 37.2874 32.2782 37.2874 31.9706V21.1852Z" fill="#0B0F1F"/>
<path fill-rule="evenodd" clip-rule="evenodd" d="M43.8973 22.3715C43.8973 22.0633 44.1467 21.8133 44.4549 21.8133C44.7619 21.8133 45.0124 22.0633 45.0124 22.3715V33.1568C45.0124 33.465 44.7619 33.7144 44.4549 33.7144C44.1467 33.7144 43.8973 33.465 43.8973 33.1568V22.3715Z" fill="#0B0F1F"/>
<path fill-rule="evenodd" clip-rule="evenodd" d="M43.9428 37.8885C42.1566 37.6654 40.2912 37.4871 38.3628 37.3578C34.8038 37.7335 34.1245 40.0726 34.0296 40.4915V51.2733C34.0296 51.7359 33.655 52.1105 33.193 52.1105H31.6386H30.361H28.8055C28.3436 52.1105 27.9689 51.7359 27.9689 51.2733V40.4915C27.8746 40.0726 27.1953 37.7335 23.6357 37.3578C21.7073 37.4871 19.8419 37.6654 18.0557 37.8885C17.9305 40.2736 17.4195 42.2847 16.721 43.9899V43.9928C15.92 45.9509 14.8719 47.4924 13.8856 48.7245C13.7731 48.8655 13.624 48.9605 13.462 49.0054C13.6112 51.3584 14.2287 53.5891 15.2232 55.6049C15.2855 55.694 15.3368 55.7924 15.3712 55.8985C16.213 57.528 17.3019 59.0106 18.5888 60.297C21.7738 63.4825 26.167 65.4598 30.9984 65.4598C35.8298 65.4598 40.223 63.4825 43.408 60.297C44.6938 59.0106 45.7838 57.5285 46.6244 55.8991C46.66 55.7924 46.7107 55.6934 46.7736 55.6049C47.7681 53.5885 48.3862 51.3578 48.5347 49.0054C48.3734 48.9599 48.2242 48.8649 48.1112 48.724C47.1249 47.4912 46.0768 45.9503 45.2758 43.9922V43.9893C44.5796 42.2853 44.0669 40.2736 43.9428 37.8885ZM40.1467 44.0004C40.1467 45.0112 39.3276 45.8297 38.3168 45.8297C37.3066 45.8297 36.4869 45.0112 36.4869 44.0004C36.4869 42.9902 37.306 42.1711 38.3168 42.1711C39.3276 42.1716 40.1467 42.9902 40.1467 44.0004ZM27.0659 55.0264C27.6613 55.8257 28.3925 56.3558 29.1685 56.6681C30.0424 57.0205 30.9774 57.1021 31.8426 56.9856C32.7007 56.8708 33.4802 56.5638 34.0534 56.1373C34.4211 55.8641 34.6931 55.5466 34.8283 55.2122C34.999 54.7846 35.4849 54.5772 35.9125 54.7485C36.3401 54.9197 36.5475 55.4056 36.3768 55.8332C36.1228 56.4613 35.6567 57.0223 35.0468 57.4767C34.2562 58.0663 33.2035 58.4863 32.0657 58.639C30.9326 58.7916 29.7033 58.6826 28.5475 58.2166C27.5029 57.7954 26.5212 57.0864 25.7266 56.0191C25.4522 55.6491 25.5297 55.1266 25.8996 54.8527C26.2696 54.5789 26.7916 54.6564 27.0659 55.0264ZM23.6817 42.1716C24.6919 42.1716 25.5116 42.9902 25.5116 44.001C25.5116 45.0117 24.6925 45.8303 23.6817 45.8303C22.6715 45.8303 21.8518 45.0117 21.8518 44.001C21.8524 42.9902 22.6715 42.1716 23.6817 42.1716Z" fill="#EDCBAB"/>
<path fill-rule="evenodd" clip-rule="evenodd" d="M32.357 50.4373V40.4157C32.357 40.3446 32.3663 40.2753 32.382 40.2095C32.4514 39.8797 32.837 38.3627 34.3174 37.1637C33.2262 37.1323 32.1193 37.116 30.9996 37.116C29.8799 37.116 28.7729 37.1323 27.6818 37.1637C29.1621 38.3621 29.5478 39.8797 29.6159 40.2095C29.6328 40.2753 29.6422 40.3441 29.6422 40.4157V50.4379H30.3611H31.6387L32.357 50.4373Z" fill="#DF9F75"/>
<path fill-rule="evenodd" clip-rule="evenodd" d="M45.6311 38.1167C45.7709 40.1668 46.2183 41.8936 46.819 43.3594C47.3264 44.598 47.9422 45.6548 48.5726 46.5618V38.5991C48.2848 38.5461 47.9946 38.4942 47.701 38.4441C47.0264 38.3282 46.3354 38.2187 45.6311 38.1167Z" fill="#89613E"/>
<path fill-rule="evenodd" clip-rule="evenodd" d="M15.1806 43.3594C15.7801 41.8936 16.2275 40.1663 16.3674 38.1161C15.663 38.2181 14.9732 38.3276 14.2974 38.4436C14.0038 38.4937 13.7137 38.5455 13.4259 38.5985V46.5607C14.0568 45.6542 14.6726 44.5974 15.1806 43.3594Z" fill="#89613E"/>
<path fill-rule="evenodd" clip-rule="evenodd" d="M13.9224 36.2485C18.9664 35.3811 24.7957 34.8859 30.9997 34.8859C37.2036 34.8859 43.0323 35.3811 48.0769 36.2485C48.2826 36.2841 48.4865 36.3202 48.6904 36.3569C48.737 36.2631 48.7976 36.1763 48.8681 36.1006V20.3871C43.1098 18.6889 37.2601 17.8401 31.3183 17.8401C25.3562 17.8401 19.2932 18.6941 13.1318 20.4011V36.0994C13.2023 36.1757 13.2629 36.2619 13.3095 36.3557C13.5128 36.3202 13.7179 36.2841 13.9224 36.2485ZM18.1019 22.3708V33.1562C18.1019 33.4644 17.8525 33.7137 17.5443 33.7137C17.2361 33.7137 16.9868 33.4644 16.9868 33.1562V22.3708C16.9868 22.0626 17.2361 21.8127 17.5443 21.8127C17.8525 21.8127 18.1019 22.0632 18.1019 22.3708ZM23.5968 31.9701V21.1847C23.5968 20.8765 23.8461 20.6266 24.1543 20.6266C24.4613 20.6266 24.7119 20.8765 24.7119 21.1847V31.9701C24.7119 32.2777 24.4613 32.5276 24.1543 32.5276C23.8461 32.5276 23.5968 32.2777 23.5968 31.9701ZM30.4421 31.4306V20.6452C30.4421 20.337 30.6927 20.0871 30.9997 20.0871C31.3079 20.0871 31.5572 20.337 31.5572 20.6452V31.43C31.5572 31.7382 31.3079 31.9875 30.9997 31.9875C30.6921 31.9881 30.4421 31.7382 30.4421 31.4306ZM37.2875 31.9701V21.1847C37.2875 20.8765 37.5368 20.6266 37.845 20.6266C38.1532 20.6266 38.4026 20.8765 38.4026 21.1847V31.9701C38.4026 32.2777 38.1532 32.5276 37.845 32.5276C37.5368 32.5276 37.2875 32.2777 37.2875 31.9701ZM43.8975 22.3708C43.8975 22.0626 44.1468 21.8127 44.455 21.8127C44.762 21.8127 45.0125 22.0626 45.0125 22.3708V33.1562C45.0125 33.4644 44.762 33.7137 44.455 33.7137C44.1468 33.7137 43.8975 33.4644 43.8975 33.1562V22.3708Z" fill="white"/>
<path fill-rule="evenodd" clip-rule="evenodd" d="M17.013 61.8756C15.708 60.5712 14.5836 59.0868 13.6812 57.4643C11.5227 57.8476 8.41171 58.9068 6.87427 59.4561C7.83553 62.5898 12.4018 72.8375 30.9991 72.8375C31.718 72.8375 32.4171 72.8223 33.0952 72.7926C30.1846 71.9514 27.5472 70.6656 25.228 69.1789C21.828 66.9988 19.1027 64.365 17.2081 62.0679C17.1429 62.0044 17.0776 61.9397 17.013 61.8756Z" fill="#59BEF2"/>
<path fill-rule="evenodd" clip-rule="evenodd" d="M44.9864 61.8756C41.3976 65.4643 36.4468 67.6921 30.9997 67.6921C28.6589 67.6921 26.4107 67.2808 24.3215 66.527C24.8983 66.9534 25.5024 67.3711 26.1305 67.7743C29.6726 70.0452 33.993 71.8215 38.896 72.1209C50.9666 69.7387 54.3153 62.0882 55.1239 59.4561C53.5865 58.9068 50.476 57.8476 48.3181 57.4643C47.4157 59.0868 46.2902 60.5712 44.9864 61.8756Z" fill="#59BEF2"/>
<path fill-rule="evenodd" clip-rule="evenodd" d="M42.2475 77.2716C40.0733 75.6119 37.3719 74.8131 33.5601 75.3019L45.824 83.3241C46.0809 83.4925 46.1526 83.8379 45.9842 84.0954C45.8159 84.3529 45.471 84.4246 45.2141 84.2568L33.3066 76.4671C39.0107 85.6993 45.6889 85.8385 48.4858 85.4051C46.4963 82.0016 44.6344 79.0957 42.2475 77.2716Z" fill="#59BEF2"/>
<path fill-rule="evenodd" clip-rule="evenodd" d="M16.1198 83.3244L28.3913 75.2964C24.6045 74.8204 21.9171 75.6192 19.7516 77.272C17.363 79.096 15.5017 82.0014 13.5139 85.4054C16.3179 85.84 23.0193 85.6984 28.7304 76.4051L16.728 84.2566C16.4711 84.4249 16.1262 84.3527 15.9579 84.0952C15.7895 83.8383 15.8611 83.4928 16.1198 83.3244Z" fill="#59BEF2"/>
<path fill-rule="evenodd" clip-rule="evenodd" d="M31.3183 15.6181C37.7314 15.6181 44.0338 16.57 50.2249 18.4727C50.7242 18.584 51.0976 19.0297 51.0976 19.5616V21.6822C55.2613 20.3894 57.6359 17.6338 58.3216 14.9743C58.638 13.7544 58.5902 12.5665 58.1894 11.5778C57.8084 10.6405 57.0947 9.87611 56.0571 9.44383C53.7722 8.49189 49.9889 9.03602 44.7096 12.4325C44.1928 12.7646 43.5048 12.6148 43.1721 12.0969C43.1098 11.999 43.0626 11.8942 43.0346 11.787C42.8016 11.085 39.8613 2.75519 31.3206 2.47672C22.78 2.75519 19.8385 11.085 19.6055 11.787C19.5758 11.8942 19.5315 11.9985 19.468 12.0969C19.1359 12.6143 18.4473 12.7646 17.9294 12.4325C12.6494 9.03544 8.86729 8.49131 6.58239 9.44383C5.532 9.88135 4.81309 10.655 4.43616 11.6029C4.04 12.6009 4.00389 13.8062 4.33829 15.0465C5.01175 17.5452 7.17139 20.1144 10.9017 21.4689V19.5616H10.9052C10.9052 19.0792 11.2215 18.6353 11.7074 18.4943C18.3477 16.5776 24.8848 15.6181 31.3183 15.6181Z" fill="white"/>
<path fill-rule="evenodd" clip-rule="evenodd" d="M31.3182 15.618C37.7313 15.618 44.0337 16.57 50.2248 18.4727C50.7241 18.584 51.0975 19.0296 51.0975 19.5615V21.6821C55.0492 20.4546 57.39 17.9093 58.2044 15.3786L58.1899 15.3401C57.8089 14.4028 57.0952 13.6384 56.0576 13.2061C53.7727 12.2542 49.9894 12.7983 44.7101 16.1948C44.1933 16.5269 43.5053 16.3766 43.1726 15.8598C43.1103 15.7619 43.0631 15.6571 43.0351 15.5499C42.8021 14.8479 39.8618 6.51866 31.3211 6.24018C22.7805 6.51924 19.839 14.8479 19.606 15.5499C19.5762 15.6571 19.532 15.7619 19.4685 15.8598C19.1364 16.3766 18.4478 16.5269 17.9299 16.1948C12.6499 12.7983 8.86778 12.2542 6.58289 13.2061C5.53249 13.6437 4.81359 14.4173 4.43666 15.3652L4.43433 15.371C5.20217 17.7648 7.33384 20.1738 10.9022 21.4695V19.5621H10.9056C10.9056 19.0797 11.222 18.6358 11.7079 18.4948C18.3476 16.5775 24.8848 15.618 31.3182 15.618Z" fill="#D8D8D8"/>
<path fill-rule="evenodd" clip-rule="evenodd" d="M33.8123 60.2763C33.8123 61.8301 32.5528 63.089 30.9996 63.089C29.4464 63.089 28.1869 61.8295 28.1869 60.2763C28.1869 59.6151 33.8123 59.6151 33.8123 60.2763Z" fill="#DF9F75"/>
<path fill-rule="evenodd" clip-rule="evenodd" d="M44.183 33.6441C29.0836 31.4046 19.3148 33.1559 19.3148 33.1559C19.3148 33.1559 19.3148 33.1559 19.3148 18.9694C17.2653 19.3504 15.2035 19.8281 13.1318 20.402V36.1003C13.2023 36.1766 13.2629 36.2628 13.3095 36.3566C13.5134 36.3199 13.7179 36.2844 13.923 36.2482C18.967 35.3808 24.7963 34.8856 31.0002 34.8856C37.2042 34.8856 43.0329 35.3808 48.0775 36.2482C48.2832 36.2838 48.4871 36.3199 48.691 36.3566C48.7376 36.2628 48.7982 36.176 48.8687 36.1003V34.4411C47.3942 34.1579 45.9616 33.9127 44.5721 33.7018C44.5348 33.7099 44.4958 33.714 44.4562 33.714C44.356 33.714 44.2634 33.6884 44.183 33.6441ZM18.1019 22.3711V33.1565C18.1019 33.4647 17.8525 33.714 17.5443 33.714C17.2361 33.714 16.9868 33.4647 16.9868 33.1565V22.3711C16.9868 22.0629 17.2361 21.813 17.5443 21.813C17.8525 21.813 18.1019 22.0635 18.1019 22.3711Z" fill="#D8D8D8"/>
<path fill-rule="evenodd" clip-rule="evenodd" d="M2.11976 42.0463C1.57155 42.3254 0.89984 42.1069 0.621365 41.5587C0.342308 41.0105 0.560784 40.3393 1.10958 40.0603C4.2264 38.4722 8.65228 37.1549 13.9229 36.2479C18.9669 35.3804 24.7962 34.8852 31.0002 34.8852C37.2041 34.8852 43.0329 35.3804 48.0774 36.2479C53.3481 37.1544 57.7734 38.4716 60.8908 40.0603C61.439 40.3393 61.6575 41.0099 61.379 41.5587C61.0999 42.1075 60.4288 42.3259 59.8806 42.0463C56.9572 40.5572 52.7498 39.3117 47.7023 38.4436C42.7876 37.5989 37.087 37.1159 31.0008 37.1159C24.9145 37.1159 19.2139 37.5989 14.2993 38.4436C9.24942 39.3117 5.04375 40.5572 2.11976 42.0463Z" fill="#0B0F1F"/>
</svg>
